<mxfile host="Electron" agent="Mozilla/5.0 (Windows NT 10.0; Win64; x64) AppleWebKit/537.36 (KHTML, like Gecko) draw.io/24.7.17 Chrome/128.0.6613.36 Electron/32.0.1 Safari/537.36" version="24.7.17">
  <diagram name="Page-1" id="o4YWdRMa8K86-Jc2KkDb">
    <mxGraphModel dx="939" dy="552" grid="1" gridSize="10" guides="1" tooltips="1" connect="1" arrows="1" fold="1" page="1" pageScale="1" pageWidth="1600" pageHeight="1200" math="1" shadow="0">
      <root>
        <mxCell id="0" />
        <mxCell id="1" parent="0" />
        <mxCell id="pO6jRp4aYSnoFD_IeGAb-1" value="" style="shape=cube;whiteSpace=wrap;html=1;boundedLbl=1;backgroundOutline=1;darkOpacity=0.05;darkOpacity2=0.1;size=50;flipH=1;" vertex="1" parent="1">
          <mxGeometry x="402" y="520" width="60" height="160" as="geometry" />
        </mxCell>
        <mxCell id="pO6jRp4aYSnoFD_IeGAb-4" value="" style="shape=cube;whiteSpace=wrap;html=1;boundedLbl=1;backgroundOutline=1;darkOpacity=0.05;darkOpacity2=0.1;size=40;flipH=1;" vertex="1" parent="1">
          <mxGeometry x="477" y="540" width="60" height="130" as="geometry" />
        </mxCell>
        <mxCell id="pO6jRp4aYSnoFD_IeGAb-5" value="" style="shape=cube;whiteSpace=wrap;html=1;boundedLbl=1;backgroundOutline=1;darkOpacity=0.05;darkOpacity2=0.1;size=30;flipH=1;" vertex="1" parent="1">
          <mxGeometry x="552" y="557.5" width="60" height="100" as="geometry" />
        </mxCell>
        <mxCell id="pO6jRp4aYSnoFD_IeGAb-6" value="" style="shape=cube;whiteSpace=wrap;html=1;boundedLbl=1;backgroundOutline=1;darkOpacity=0.05;darkOpacity2=0.1;size=30;flipH=1;" vertex="1" parent="1">
          <mxGeometry x="720" y="562.5" width="70" height="85" as="geometry" />
        </mxCell>
        <mxCell id="pO6jRp4aYSnoFD_IeGAb-10" value="" style="shape=cube;whiteSpace=wrap;html=1;boundedLbl=1;backgroundOutline=1;darkOpacity=0.05;darkOpacity2=0.1;size=30;flipH=1;" vertex="1" parent="1">
          <mxGeometry x="1160" y="568" width="60" height="65" as="geometry" />
        </mxCell>
        <mxCell id="pO6jRp4aYSnoFD_IeGAb-12" value="" style="shape=cube;whiteSpace=wrap;html=1;boundedLbl=1;backgroundOutline=1;darkOpacity=0.05;darkOpacity2=0.1;size=3;flipH=1;" vertex="1" parent="1">
          <mxGeometry x="1240" y="588.5" width="40" height="38" as="geometry" />
        </mxCell>
        <mxCell id="pO6jRp4aYSnoFD_IeGAb-13" value="" style="shape=cube;whiteSpace=wrap;html=1;boundedLbl=1;backgroundOutline=1;darkOpacity=0.05;darkOpacity2=0.1;size=3;flipH=1;" vertex="1" parent="1">
          <mxGeometry x="1315" y="588" width="10" height="38" as="geometry" />
        </mxCell>
        <mxCell id="pO6jRp4aYSnoFD_IeGAb-20" value="" style="shape=flexArrow;endArrow=classic;html=1;rounded=0;width=5.555555555555555;endSize=4.037777777777778;endWidth=11.62962962962963;fillColor=#FFFF66;fillStyle=solid;" edge="1" parent="1">
          <mxGeometry width="50" height="50" relative="1" as="geometry">
            <mxPoint x="442" y="610" as="sourcePoint" />
            <mxPoint x="477" y="609.77" as="targetPoint" />
          </mxGeometry>
        </mxCell>
        <mxCell id="pO6jRp4aYSnoFD_IeGAb-21" value="" style="shape=flexArrow;endArrow=classic;html=1;rounded=0;width=5.555555555555555;endSize=4.037777777777778;endWidth=11.62962962962963;fillColor=#FFFF66;fillStyle=solid;" edge="1" parent="1">
          <mxGeometry width="50" height="50" relative="1" as="geometry">
            <mxPoint x="517" y="610.23" as="sourcePoint" />
            <mxPoint x="552" y="610" as="targetPoint" />
          </mxGeometry>
        </mxCell>
        <mxCell id="pO6jRp4aYSnoFD_IeGAb-23" value="" style="shape=flexArrow;endArrow=classic;html=1;rounded=0;width=5.555555555555555;endSize=4.037777777777778;endWidth=11.62962962962963;fillColor=#CCCC00;fillStyle=solid;" edge="1" parent="1">
          <mxGeometry width="50" height="50" relative="1" as="geometry">
            <mxPoint x="774" y="609.2300000000001" as="sourcePoint" />
            <mxPoint x="809" y="609.0000000000001" as="targetPoint" />
          </mxGeometry>
        </mxCell>
        <mxCell id="pO6jRp4aYSnoFD_IeGAb-24" value="" style="shape=flexArrow;endArrow=classic;html=1;rounded=0;width=5.555555555555555;endSize=4.037777777777778;endWidth=11.62962962962963;fillColor=#FFFF66;fillStyle=solid;" edge="1" parent="1">
          <mxGeometry width="50" height="50" relative="1" as="geometry">
            <mxPoint x="596" y="610.23" as="sourcePoint" />
            <mxPoint x="631" y="610" as="targetPoint" />
          </mxGeometry>
        </mxCell>
        <mxCell id="pO6jRp4aYSnoFD_IeGAb-29" value="" style="shape=flexArrow;endArrow=classic;html=1;rounded=0;width=5.555555555555555;endSize=4.037777777777778;endWidth=11.62962962962963;fillColor=#9999FF;fillStyle=solid;" edge="1" parent="1">
          <mxGeometry width="50" height="50" relative="1" as="geometry">
            <mxPoint x="1205" y="608.2300000000001" as="sourcePoint" />
            <mxPoint x="1240" y="608.0000000000001" as="targetPoint" />
          </mxGeometry>
        </mxCell>
        <mxCell id="pO6jRp4aYSnoFD_IeGAb-30" value="" style="shape=flexArrow;endArrow=classic;html=1;rounded=0;width=5.555555555555555;endSize=4.037777777777778;endWidth=11.62962962962963;fillColor=#0000FF;fillStyle=solid;" edge="1" parent="1">
          <mxGeometry width="50" height="50" relative="1" as="geometry">
            <mxPoint x="1280" y="607.5600000000002" as="sourcePoint" />
            <mxPoint x="1315" y="607.3300000000002" as="targetPoint" />
          </mxGeometry>
        </mxCell>
        <mxCell id="pO6jRp4aYSnoFD_IeGAb-32" value="&lt;font style=&quot;font-size: 17px;&quot; face=&quot;Times New Roman&quot;&gt;“9”&lt;/font&gt;" style="text;html=1;align=center;verticalAlign=middle;whiteSpace=wrap;rounded=0;fontSize=17;" vertex="1" parent="1">
          <mxGeometry x="1330" y="592.5" width="30" height="30" as="geometry" />
        </mxCell>
        <mxCell id="pO6jRp4aYSnoFD_IeGAb-36" style="edgeStyle=orthogonalEdgeStyle;rounded=0;orthogonalLoop=1;jettySize=auto;html=1;exitX=1;exitY=0.5;exitDx=0;exitDy=0;entryX=0;entryY=0.5;entryDx=0;entryDy=0;" edge="1" parent="1" source="pO6jRp4aYSnoFD_IeGAb-33" target="pO6jRp4aYSnoFD_IeGAb-38">
          <mxGeometry relative="1" as="geometry">
            <mxPoint x="910" y="608.047619047619" as="targetPoint" />
          </mxGeometry>
        </mxCell>
        <mxCell id="pO6jRp4aYSnoFD_IeGAb-33" value="&lt;font style=&quot;font-size: 15px;&quot; face=&quot;Times New Roman&quot;&gt;SE Block&lt;/font&gt;" style="rounded=0;whiteSpace=wrap;html=1;gradientColor=#6666FF;gradientDirection=east;fillColor=#FFFF00;" vertex="1" parent="1">
          <mxGeometry x="810" y="586.5" width="70" height="43" as="geometry" />
        </mxCell>
        <mxCell id="pO6jRp4aYSnoFD_IeGAb-41" style="edgeStyle=orthogonalEdgeStyle;rounded=0;orthogonalLoop=1;jettySize=auto;html=1;" edge="1" parent="1" source="pO6jRp4aYSnoFD_IeGAb-38">
          <mxGeometry relative="1" as="geometry">
            <mxPoint x="940" y="607.5" as="targetPoint" />
          </mxGeometry>
        </mxCell>
        <mxCell id="pO6jRp4aYSnoFD_IeGAb-38" value="" style="shape=orEllipse;perimeter=ellipsePerimeter;whiteSpace=wrap;html=1;backgroundOutline=1;" vertex="1" parent="1">
          <mxGeometry x="900" y="597.5" width="20" height="20" as="geometry" />
        </mxCell>
        <mxCell id="pO6jRp4aYSnoFD_IeGAb-40" value="" style="endArrow=classic;html=1;rounded=0;entryX=0.5;entryY=0;entryDx=0;entryDy=0;" edge="1" parent="1" target="pO6jRp4aYSnoFD_IeGAb-38">
          <mxGeometry width="50" height="50" relative="1" as="geometry">
            <mxPoint x="753" y="578" as="sourcePoint" />
            <mxPoint x="930" y="520" as="targetPoint" />
            <Array as="points">
              <mxPoint x="753" y="530" />
              <mxPoint x="910" y="530" />
            </Array>
          </mxGeometry>
        </mxCell>
        <mxCell id="pO6jRp4aYSnoFD_IeGAb-42" value="" style="shape=cube;whiteSpace=wrap;html=1;boundedLbl=1;backgroundOutline=1;darkOpacity=0.05;darkOpacity2=0.1;size=30;flipH=1;" vertex="1" parent="1">
          <mxGeometry x="940" y="562.5" width="70" height="85" as="geometry" />
        </mxCell>
        <mxCell id="pO6jRp4aYSnoFD_IeGAb-43" value="" style="shape=flexArrow;endArrow=classic;html=1;rounded=0;width=5.555555555555555;endSize=4.037777777777778;endWidth=11.62962962962963;fillColor=#CCCC00;fillStyle=solid;" edge="1" parent="1">
          <mxGeometry width="50" height="50" relative="1" as="geometry">
            <mxPoint x="994" y="609.2300000000001" as="sourcePoint" />
            <mxPoint x="1029" y="609.0000000000001" as="targetPoint" />
          </mxGeometry>
        </mxCell>
        <mxCell id="pO6jRp4aYSnoFD_IeGAb-44" style="edgeStyle=orthogonalEdgeStyle;rounded=0;orthogonalLoop=1;jettySize=auto;html=1;exitX=1;exitY=0.5;exitDx=0;exitDy=0;entryX=0;entryY=0.5;entryDx=0;entryDy=0;" edge="1" parent="1" source="pO6jRp4aYSnoFD_IeGAb-45" target="pO6jRp4aYSnoFD_IeGAb-46">
          <mxGeometry relative="1" as="geometry">
            <mxPoint x="1130" y="608.047619047619" as="targetPoint" />
          </mxGeometry>
        </mxCell>
        <mxCell id="pO6jRp4aYSnoFD_IeGAb-45" value="&lt;font style=&quot;font-size: 15px;&quot; face=&quot;Times New Roman&quot;&gt;SE Block&lt;/font&gt;" style="rounded=0;whiteSpace=wrap;html=1;gradientColor=#6666FF;gradientDirection=east;fillColor=#FFFF00;" vertex="1" parent="1">
          <mxGeometry x="1030" y="586.5" width="70" height="43" as="geometry" />
        </mxCell>
        <mxCell id="pO6jRp4aYSnoFD_IeGAb-46" value="" style="shape=orEllipse;perimeter=ellipsePerimeter;whiteSpace=wrap;html=1;backgroundOutline=1;" vertex="1" parent="1">
          <mxGeometry x="1120" y="597.5" width="20" height="20" as="geometry" />
        </mxCell>
        <mxCell id="pO6jRp4aYSnoFD_IeGAb-47" value="" style="endArrow=classic;html=1;rounded=0;entryX=0.5;entryY=0;entryDx=0;entryDy=0;" edge="1" parent="1" target="pO6jRp4aYSnoFD_IeGAb-46">
          <mxGeometry width="50" height="50" relative="1" as="geometry">
            <mxPoint x="973" y="578" as="sourcePoint" />
            <mxPoint x="1150" y="520" as="targetPoint" />
            <Array as="points">
              <mxPoint x="973" y="530" />
              <mxPoint x="1130" y="530" />
            </Array>
          </mxGeometry>
        </mxCell>
        <mxCell id="pO6jRp4aYSnoFD_IeGAb-50" value="" style="shape=cube;whiteSpace=wrap;html=1;boundedLbl=1;backgroundOutline=1;darkOpacity=0.05;darkOpacity2=0.1;size=30;flipH=1;" vertex="1" parent="1">
          <mxGeometry x="631" y="562.5" width="70" height="85" as="geometry" />
        </mxCell>
        <mxCell id="pO6jRp4aYSnoFD_IeGAb-51" value="" style="shape=flexArrow;endArrow=classic;html=1;rounded=0;width=5.555555555555555;endSize=4.037777777777778;endWidth=11.62962962962963;fillColor=#CCCC00;fillStyle=solid;" edge="1" parent="1">
          <mxGeometry width="50" height="50" relative="1" as="geometry">
            <mxPoint x="685" y="609.2300000000001" as="sourcePoint" />
            <mxPoint x="720" y="609.0000000000001" as="targetPoint" />
          </mxGeometry>
        </mxCell>
        <mxCell id="pO6jRp4aYSnoFD_IeGAb-52" style="edgeStyle=orthogonalEdgeStyle;rounded=0;orthogonalLoop=1;jettySize=auto;html=1;exitX=1;exitY=0.5;exitDx=0;exitDy=0;entryX=1;entryY=0.606;entryDx=0;entryDy=0;entryPerimeter=0;" edge="1" parent="1" source="pO6jRp4aYSnoFD_IeGAb-46" target="pO6jRp4aYSnoFD_IeGAb-10">
          <mxGeometry relative="1" as="geometry" />
        </mxCell>
      </root>
    </mxGraphModel>
  </diagram>
</mxfile>
